<svg width="158" height="46" viewBox="0 0 158 46" fill="none" xmlns="http://www.w3.org/2000/svg">
<path d="M14.1562 46H4.25L4.3125 38.6875H14.1562C16.6146 38.6875 18.6875 38.1354 20.375 37.0312C22.0625 35.9062 23.3333 34.2708 24.1875 32.125C25.0625 29.9792 25.5 27.3854 25.5 24.3438V22.125C25.5 19.7917 25.25 17.7396 24.75 15.9688C24.2708 14.1979 23.5521 12.7083 22.5938 11.5C21.6354 10.2917 20.4583 9.38542 19.0625 8.78125C17.6667 8.15625 16.0625 7.84375 14.25 7.84375H4.0625V0.5H14.25C17.2917 0.5 20.0729 1.02083 22.5938 2.0625C25.1354 3.08333 27.3333 4.55208 29.1875 6.46875C31.0417 8.38542 32.4688 10.6771 33.4688 13.3438C34.4896 15.9896 35 18.9375 35 22.1875V24.3438C35 27.5729 34.4896 30.5208 33.4688 33.1875C32.4688 35.8542 31.0417 38.1458 29.1875 40.0625C27.3542 41.9583 25.1562 43.4271 22.5938 44.4688C20.0521 45.4896 17.2396 46 14.1562 46ZM9.5625 0.5V46H0.1875V0.5H9.5625ZM59.625 8.28125L47.25 46H37.2812L54.1875 0.5H60.5312L59.625 8.28125ZM69.9062 46L57.5 8.28125L56.5 0.5H62.9062L79.9062 46H69.9062ZM69.3438 29.0625V36.4062H45.3125V29.0625H69.3438ZM84.125 0.5H101.094C104.573 0.5 107.562 1.02083 110.062 2.0625C112.583 3.10417 114.521 4.64583 115.875 6.6875C117.229 8.72917 117.906 11.2396 117.906 14.2188C117.906 16.6562 117.49 18.75 116.656 20.5C115.844 22.2292 114.688 23.6771 113.188 24.8438C111.708 25.9896 109.969 26.9062 107.969 27.5938L105 29.1562H90.25L90.1875 21.8438H101.156C102.802 21.8438 104.167 21.5521 105.25 20.9688C106.333 20.3854 107.146 19.5729 107.688 18.5312C108.25 17.4896 108.531 16.2812 108.531 14.9062C108.531 13.4479 108.26 12.1875 107.719 11.125C107.177 10.0625 106.354 9.25 105.25 8.6875C104.146 8.125 102.76 7.84375 101.094 7.84375H93.5V46H84.125V0.5ZM109.562 46L99.1875 25.7188L109.094 25.6562L119.594 45.5625V46H109.562ZM143.594 0.5V46H134.25V0.5H143.594ZM157.594 0.5V7.84375H120.469V0.5H157.594Z" fill="url(#paint0_linear_106_102)"/>
<defs>
<linearGradient id="paint0_linear_106_102" x1="136.078" y1="-0.500002" x2="27.6119" y2="67.4777" gradientUnits="userSpaceOnUse">
<stop stop-color="#D5525A"/>
<stop offset="1" stop-color="#451D78"/>
</linearGradient>
</defs>
</svg>
