<svg width="185" height="49" viewBox="0 0 185 49" fill="none" xmlns="http://www.w3.org/2000/svg">
<path d="M9.78125 2.5V48H0.40625V2.5H9.78125ZM27.9062 21.9375V29.25H7.21875V21.9375H27.9062ZM30.0938 2.5V9.84375H7.21875V2.5H30.0938ZM44.4688 0V48H35.4375V0H44.4688ZM71.9062 39.9062V14.1875H80.9062V48H72.4375L71.9062 39.9062ZM72.9062 32.9688L75.5625 32.9062C75.5625 35.1562 75.3021 37.25 74.7812 39.1875C74.2604 41.1042 73.4792 42.7708 72.4375 44.1875C71.3958 45.5833 70.0833 46.6771 68.5 47.4688C66.9167 48.2396 65.0521 48.625 62.9062 48.625C61.2604 48.625 59.7396 48.3958 58.3438 47.9375C56.9688 47.4583 55.7812 46.7188 54.7812 45.7188C53.8021 44.6979 53.0312 43.3958 52.4688 41.8125C51.9271 40.2083 51.6562 38.2812 51.6562 36.0312V14.1875H60.6562V36.0938C60.6562 37.0938 60.7708 37.9375 61 38.625C61.25 39.3125 61.5938 39.875 62.0312 40.3125C62.4688 40.75 62.9792 41.0625 63.5625 41.25C64.1667 41.4375 64.8333 41.5312 65.5625 41.5312C67.4167 41.5312 68.875 41.1562 69.9375 40.4062C71.0208 39.6562 71.7812 38.6354 72.2188 37.3438C72.6771 36.0312 72.9062 34.5729 72.9062 32.9688ZM104.344 14.1875V20.5625H84.6562V14.1875H104.344ZM89.5312 5.84375H98.5312V37.8125C98.5312 38.7917 98.6562 39.5417 98.9062 40.0625C99.1771 40.5833 99.5729 40.9479 100.094 41.1562C100.615 41.3438 101.271 41.4375 102.062 41.4375C102.625 41.4375 103.125 41.4167 103.562 41.375C104.021 41.3125 104.406 41.25 104.719 41.1875L104.75 47.8125C103.979 48.0625 103.146 48.2604 102.25 48.4062C101.354 48.5521 100.365 48.625 99.2812 48.625C97.3021 48.625 95.5729 48.3021 94.0938 47.6562C92.6354 46.9896 91.5104 45.9271 90.7188 44.4688C89.9271 43.0104 89.5312 41.0938 89.5312 38.7188V5.84375ZM126.031 14.1875V20.5625H106.344V14.1875H126.031ZM111.219 5.84375H120.219V37.8125C120.219 38.7917 120.344 39.5417 120.594 40.0625C120.865 40.5833 121.26 40.9479 121.781 41.1562C122.302 41.3438 122.958 41.4375 123.75 41.4375C124.312 41.4375 124.812 41.4167 125.25 41.375C125.708 41.3125 126.094 41.25 126.406 41.1875L126.438 47.8125C125.667 48.0625 124.833 48.2604 123.938 48.4062C123.042 48.5521 122.052 48.625 120.969 48.625C118.99 48.625 117.26 48.3021 115.781 47.6562C114.323 46.9896 113.198 45.9271 112.406 44.4688C111.615 43.0104 111.219 41.0938 111.219 38.7188V5.84375ZM146.719 48.625C144.094 48.625 141.74 48.2083 139.656 47.375C137.573 46.5208 135.802 45.3438 134.344 43.8438C132.906 42.3438 131.802 40.6042 131.031 38.625C130.26 36.625 129.875 34.5 129.875 32.25V31C129.875 28.4375 130.24 26.0938 130.969 23.9688C131.698 21.8438 132.74 20 134.094 18.4375C135.469 16.875 137.135 15.6771 139.094 14.8438C141.052 13.9896 143.26 13.5625 145.719 13.5625C148.115 13.5625 150.24 13.9583 152.094 14.75C153.948 15.5417 155.5 16.6667 156.75 18.125C158.021 19.5833 158.979 21.3333 159.625 23.375C160.271 25.3958 160.594 27.6458 160.594 30.125V33.875H133.719V27.875H151.75V27.1875C151.75 25.9375 151.521 24.8229 151.062 23.8438C150.625 22.8438 149.958 22.0521 149.062 21.4688C148.167 20.8854 147.021 20.5938 145.625 20.5938C144.438 20.5938 143.417 20.8542 142.562 21.375C141.708 21.8958 141.01 22.625 140.469 23.5625C139.948 24.5 139.552 25.6042 139.281 26.875C139.031 28.125 138.906 29.5 138.906 31V32.25C138.906 33.6042 139.094 34.8542 139.469 36C139.865 37.1458 140.417 38.1354 141.125 38.9688C141.854 39.8021 142.729 40.4479 143.75 40.9062C144.792 41.3646 145.969 41.5938 147.281 41.5938C148.906 41.5938 150.417 41.2812 151.812 40.6562C153.229 40.0104 154.448 39.0417 155.469 37.75L159.844 42.5C159.135 43.5208 158.167 44.5 156.938 45.4375C155.729 46.375 154.271 47.1458 152.562 47.75C150.854 48.3333 148.906 48.625 146.719 48.625ZM174.719 21.5625V48H165.719V14.1875H174.188L174.719 21.5625ZM184.906 13.9688L184.75 22.3125C184.312 22.25 183.781 22.1979 183.156 22.1562C182.552 22.0938 182 22.0625 181.5 22.0625C180.229 22.0625 179.125 22.2292 178.188 22.5625C177.271 22.875 176.5 23.3438 175.875 23.9688C175.271 24.5938 174.812 25.3542 174.5 26.25C174.208 27.1458 174.042 28.1667 174 29.3125L172.188 28.75C172.188 26.5625 172.406 24.5521 172.844 22.7188C173.281 20.8646 173.917 19.25 174.75 17.875C175.604 16.5 176.646 15.4375 177.875 14.6875C179.104 13.9375 180.51 13.5625 182.094 13.5625C182.594 13.5625 183.104 13.6042 183.625 13.6875C184.146 13.75 184.573 13.8438 184.906 13.9688Z" fill="url(#paint0_linear_106_104)"/>
<defs>
<linearGradient id="paint0_linear_106_104" x1="159.281" y1="1.5" x2="44.4637" y2="85.3777" gradientUnits="userSpaceOnUse">
<stop stop-color="#D5525A"/>
<stop offset="1" stop-color="#451D78"/>
</linearGradient>
</defs>
</svg>
