<svg width="73" height="48" viewBox="0 0 73 48" fill="none" xmlns="http://www.w3.org/2000/svg">
<path d="M21.875 33.0312V1.5H31.2188V33.0312C31.2188 36.0729 30.5521 38.6875 29.2188 40.875C27.8854 43.0417 26.0625 44.7083 23.75 45.875C21.4583 47.0417 18.875 47.625 16 47.625C13.0208 47.625 10.3854 47.125 8.09375 46.125C5.80208 45.125 4 43.5938 2.6875 41.5312C1.375 39.4479 0.71875 36.8125 0.71875 33.625H10.125C10.125 35.2917 10.3542 36.6146 10.8125 37.5938C11.2917 38.5729 11.9688 39.2708 12.8438 39.6875C13.7188 40.1042 14.7708 40.3125 16 40.3125C17.1875 40.3125 18.2188 40.0312 19.0938 39.4688C19.9688 38.9062 20.6458 38.0833 21.125 37C21.625 35.9167 21.875 34.5938 21.875 33.0312ZM62.9062 35.0938C62.9062 34.2812 62.7812 33.5521 62.5312 32.9062C62.3021 32.2396 61.8646 31.6354 61.2188 31.0938C60.5729 30.5312 59.6667 29.9792 58.5 29.4375C57.3333 28.8958 55.8229 28.3333 53.9688 27.75C51.9062 27.0833 49.9479 26.3333 48.0938 25.5C46.2604 24.6667 44.6354 23.6979 43.2188 22.5938C41.8229 21.4688 40.7188 20.1667 39.9062 18.6875C39.1146 17.2083 38.7188 15.4896 38.7188 13.5312C38.7188 11.6354 39.1354 9.91667 39.9688 8.375C40.8021 6.8125 41.9688 5.47917 43.4688 4.375C44.9688 3.25 46.7396 2.38542 48.7812 1.78125C50.8438 1.17708 53.1042 0.875 55.5625 0.875C58.9167 0.875 61.8438 1.47917 64.3438 2.6875C66.8438 3.89583 68.7812 5.55208 70.1562 7.65625C71.5521 9.76042 72.25 12.1667 72.25 14.875H62.9375C62.9375 13.5417 62.6562 12.375 62.0938 11.375C61.5521 10.3542 60.7188 9.55208 59.5938 8.96875C58.4896 8.38542 57.0938 8.09375 55.4062 8.09375C53.7812 8.09375 52.4271 8.34375 51.3438 8.84375C50.2604 9.32292 49.4479 9.97917 48.9062 10.8125C48.3646 11.625 48.0938 12.5417 48.0938 13.5625C48.0938 14.3333 48.2812 15.0312 48.6562 15.6562C49.0521 16.2812 49.6354 16.8646 50.4062 17.4062C51.1771 17.9479 52.125 18.4583 53.25 18.9375C54.375 19.4167 55.6771 19.8854 57.1562 20.3438C59.6354 21.0938 61.8125 21.9375 63.6875 22.875C65.5833 23.8125 67.1667 24.8646 68.4375 26.0312C69.7083 27.1979 70.6667 28.5208 71.3125 30C71.9583 31.4792 72.2812 33.1562 72.2812 35.0312C72.2812 37.0104 71.8958 38.7812 71.125 40.3438C70.3542 41.9062 69.2396 43.2292 67.7812 44.3125C66.3229 45.3958 64.5833 46.2188 62.5625 46.7812C60.5417 47.3438 58.2812 47.625 55.7812 47.625C53.5312 47.625 51.3125 47.3333 49.125 46.75C46.9375 46.1458 44.9479 45.2396 43.1562 44.0312C41.3854 42.8229 39.9688 41.2812 38.9062 39.4062C37.8438 37.5312 37.3125 35.3125 37.3125 32.75H46.7188C46.7188 34.1667 46.9375 35.3646 47.375 36.3438C47.8125 37.3229 48.4271 38.1146 49.2188 38.7188C50.0312 39.3229 50.9896 39.7604 52.0938 40.0312C53.2188 40.3021 54.4479 40.4375 55.7812 40.4375C57.4062 40.4375 58.7396 40.2083 59.7812 39.75C60.8438 39.2917 61.625 38.6562 62.125 37.8438C62.6458 37.0312 62.9062 36.1146 62.9062 35.0938Z" fill="url(#paint0_linear_105_99)"/>
<defs>
<linearGradient id="paint0_linear_105_99" x1="64.3125" y1="0.499998" x2="-0.583277" y2="19.4633" gradientUnits="userSpaceOnUse">
<stop stop-color="#D5525A"/>
<stop offset="1" stop-color="#451D78"/>
</linearGradient>
</defs>
</svg>
