<svg width="23" height="20" viewBox="0 0 23 20" fill="none" xmlns="http://www.w3.org/2000/svg">
<path d="M7.50011 8C5.00011 8 3.00011 10 3.00011 12.5C3.00011 13.38 3.25011 14.21 3.69011 14.9L0.610107 18L2.00011 19.39L5.12011 16.32C5.81011 16.75 6.63011 17 7.50011 17C10.0001 17 12.0001 15 12.0001 12.5C12.0001 10 10.0001 8 7.50011 8ZM7.50011 15C6.12011 15 5.00011 13.88 5.00011 12.5C5.00011 11.12 6.12011 10 7.50011 10C8.88011 10 10.0001 11.12 10.0001 12.5C10.0001 13.88 8.88011 15 7.50011 15ZM23.0001 2V16C23.0001 17.11 22.1101 18 21.0001 18H10.9501C11.7601 17.5 12.4501 16.81 12.9701 16H21.0001V6H13.0001V2H3.00011V7.82C1.77011 9 1.00011 10.66 1.00011 12.5V2C1.00011 0.9 1.90011 0 3.00011 0H21.0001C22.1101 0 23.0001 0.9 23.0001 2Z" fill="white"/>
</svg>
