<svg width="153" height="48" viewBox="0 0 153 48" fill="none" xmlns="http://www.w3.org/2000/svg">
<path d="M28.6875 31.9062H38.0312C37.8438 34.9688 37 37.6875 35.5 40.0625C34.0208 42.4375 31.9479 44.2917 29.2812 45.625C26.6354 46.9583 23.4479 47.625 19.7188 47.625C16.8021 47.625 14.1875 47.125 11.875 46.125C9.5625 45.1042 7.58333 43.6458 5.9375 41.75C4.3125 39.8542 3.07292 37.5625 2.21875 34.875C1.36458 32.1875 0.9375 29.1771 0.9375 25.8438V22.6875C0.9375 19.3542 1.375 16.3438 2.25 13.6562C3.14583 10.9479 4.41667 8.64583 6.0625 6.75C7.72917 4.85417 9.71875 3.39583 12.0312 2.375C14.3438 1.35417 16.9271 0.84375 19.7812 0.84375C23.5729 0.84375 26.7708 1.53125 29.375 2.90625C32 4.28125 34.0312 6.17708 35.4688 8.59375C36.9271 11.0104 37.8021 13.7604 38.0938 16.8438H28.7188C28.6146 15.0104 28.25 13.4583 27.625 12.1875C27 10.8958 26.0521 9.92708 24.7812 9.28125C23.5312 8.61458 21.8646 8.28125 19.7812 8.28125C18.2188 8.28125 16.8542 8.57292 15.6875 9.15625C14.5208 9.73958 13.5417 10.625 12.75 11.8125C11.9583 13 11.3646 14.5 10.9688 16.3125C10.5938 18.1042 10.4062 20.2083 10.4062 22.625V25.8438C10.4062 28.1979 10.5833 30.2708 10.9375 32.0625C11.2917 33.8333 11.8333 35.3333 12.5625 36.5625C13.3125 37.7708 14.2708 38.6875 15.4375 39.3125C16.625 39.9167 18.0521 40.2188 19.7188 40.2188C21.6771 40.2188 23.2917 39.9062 24.5625 39.2812C25.8333 38.6562 26.8021 37.7292 27.4688 36.5C28.1562 35.2708 28.5625 33.7396 28.6875 31.9062ZM67.875 35.0938C67.875 34.2812 67.75 33.5521 67.5 32.9062C67.2708 32.2396 66.8333 31.6354 66.1875 31.0938C65.5417 30.5312 64.6354 29.9792 63.4688 29.4375C62.3021 28.8958 60.7917 28.3333 58.9375 27.75C56.875 27.0833 54.9167 26.3333 53.0625 25.5C51.2292 24.6667 49.6042 23.6979 48.1875 22.5938C46.7917 21.4688 45.6875 20.1667 44.875 18.6875C44.0833 17.2083 43.6875 15.4896 43.6875 13.5312C43.6875 11.6354 44.1042 9.91667 44.9375 8.375C45.7708 6.8125 46.9375 5.47917 48.4375 4.375C49.9375 3.25 51.7083 2.38542 53.75 1.78125C55.8125 1.17708 58.0729 0.875 60.5312 0.875C63.8854 0.875 66.8125 1.47917 69.3125 2.6875C71.8125 3.89583 73.75 5.55208 75.125 7.65625C76.5208 9.76042 77.2188 12.1667 77.2188 14.875H67.9062C67.9062 13.5417 67.625 12.375 67.0625 11.375C66.5208 10.3542 65.6875 9.55208 64.5625 8.96875C63.4583 8.38542 62.0625 8.09375 60.375 8.09375C58.75 8.09375 57.3958 8.34375 56.3125 8.84375C55.2292 9.32292 54.4167 9.97917 53.875 10.8125C53.3333 11.625 53.0625 12.5417 53.0625 13.5625C53.0625 14.3333 53.25 15.0312 53.625 15.6562C54.0208 16.2812 54.6042 16.8646 55.375 17.4062C56.1458 17.9479 57.0938 18.4583 58.2188 18.9375C59.3438 19.4167 60.6458 19.8854 62.125 20.3438C64.6042 21.0938 66.7812 21.9375 68.6562 22.875C70.5521 23.8125 72.1354 24.8646 73.4062 26.0312C74.6771 27.1979 75.6354 28.5208 76.2812 30C76.9271 31.4792 77.25 33.1562 77.25 35.0312C77.25 37.0104 76.8646 38.7812 76.0938 40.3438C75.3229 41.9062 74.2083 43.2292 72.75 44.3125C71.2917 45.3958 69.5521 46.2188 67.5312 46.7812C65.5104 47.3438 63.25 47.625 60.75 47.625C58.5 47.625 56.2812 47.3333 54.0938 46.75C51.9062 46.1458 49.9167 45.2396 48.125 44.0312C46.3542 42.8229 44.9375 41.2812 43.875 39.4062C42.8125 37.5312 42.2812 35.3125 42.2812 32.75H51.6875C51.6875 34.1667 51.9062 35.3646 52.3438 36.3438C52.7812 37.3229 53.3958 38.1146 54.1875 38.7188C55 39.3229 55.9583 39.7604 57.0625 40.0312C58.1875 40.3021 59.4167 40.4375 60.75 40.4375C62.375 40.4375 63.7083 40.2083 64.75 39.75C65.8125 39.2917 66.5938 38.6562 67.0938 37.8438C67.6146 37.0312 67.875 36.1146 67.875 35.0938ZM107.312 35.0938C107.312 34.2812 107.188 33.5521 106.938 32.9062C106.708 32.2396 106.271 31.6354 105.625 31.0938C104.979 30.5312 104.073 29.9792 102.906 29.4375C101.74 28.8958 100.229 28.3333 98.375 27.75C96.3125 27.0833 94.3542 26.3333 92.5 25.5C90.6667 24.6667 89.0417 23.6979 87.625 22.5938C86.2292 21.4688 85.125 20.1667 84.3125 18.6875C83.5208 17.2083 83.125 15.4896 83.125 13.5312C83.125 11.6354 83.5417 9.91667 84.375 8.375C85.2083 6.8125 86.375 5.47917 87.875 4.375C89.375 3.25 91.1458 2.38542 93.1875 1.78125C95.25 1.17708 97.5104 0.875 99.9688 0.875C103.323 0.875 106.25 1.47917 108.75 2.6875C111.25 3.89583 113.188 5.55208 114.562 7.65625C115.958 9.76042 116.656 12.1667 116.656 14.875H107.344C107.344 13.5417 107.062 12.375 106.5 11.375C105.958 10.3542 105.125 9.55208 104 8.96875C102.896 8.38542 101.5 8.09375 99.8125 8.09375C98.1875 8.09375 96.8333 8.34375 95.75 8.84375C94.6667 9.32292 93.8542 9.97917 93.3125 10.8125C92.7708 11.625 92.5 12.5417 92.5 13.5625C92.5 14.3333 92.6875 15.0312 93.0625 15.6562C93.4583 16.2812 94.0417 16.8646 94.8125 17.4062C95.5833 17.9479 96.5312 18.4583 97.6562 18.9375C98.7812 19.4167 100.083 19.8854 101.562 20.3438C104.042 21.0938 106.219 21.9375 108.094 22.875C109.99 23.8125 111.573 24.8646 112.844 26.0312C114.115 27.1979 115.073 28.5208 115.719 30C116.365 31.4792 116.688 33.1562 116.688 35.0312C116.688 37.0104 116.302 38.7812 115.531 40.3438C114.76 41.9062 113.646 43.2292 112.188 44.3125C110.729 45.3958 108.99 46.2188 106.969 46.7812C104.948 47.3438 102.688 47.625 100.188 47.625C97.9375 47.625 95.7188 47.3333 93.5312 46.75C91.3438 46.1458 89.3542 45.2396 87.5625 44.0312C85.7917 42.8229 84.375 41.2812 83.3125 39.4062C82.25 37.5312 81.7188 35.3125 81.7188 32.75H91.125C91.125 34.1667 91.3438 35.3646 91.7812 36.3438C92.2188 37.3229 92.8333 38.1146 93.625 38.7188C94.4375 39.3229 95.3958 39.7604 96.5 40.0312C97.625 40.3021 98.8542 40.4375 100.188 40.4375C101.812 40.4375 103.146 40.2083 104.188 39.75C105.25 39.2917 106.031 38.6562 106.531 37.8438C107.052 37.0312 107.312 36.1146 107.312 35.0938ZM131.344 20.3438H136.156C137.698 20.3438 138.969 20.0833 139.969 19.5625C140.969 19.0208 141.708 18.2708 142.188 17.3125C142.688 16.3333 142.938 15.1979 142.938 13.9062C142.938 12.7396 142.708 11.7083 142.25 10.8125C141.812 9.89583 141.135 9.1875 140.219 8.6875C139.302 8.16667 138.146 7.90625 136.75 7.90625C135.646 7.90625 134.625 8.125 133.688 8.5625C132.75 9 132 9.61458 131.438 10.4062C130.875 11.1979 130.594 12.1562 130.594 13.2812H121.562C121.562 10.7812 122.229 8.60417 123.562 6.75C124.917 4.89583 126.729 3.44792 129 2.40625C131.271 1.36458 133.771 0.84375 136.5 0.84375C139.583 0.84375 142.281 1.34375 144.594 2.34375C146.906 3.32292 148.708 4.77083 150 6.6875C151.292 8.60417 151.938 10.9792 151.938 13.8125C151.938 15.25 151.604 16.6458 150.938 18C150.271 19.3333 149.312 20.5417 148.062 21.625C146.833 22.6875 145.333 23.5417 143.562 24.1875C141.792 24.8125 139.802 25.125 137.594 25.125H131.344V20.3438ZM131.344 27.1875V22.5312H137.594C140.073 22.5312 142.25 22.8125 144.125 23.375C146 23.9375 147.573 24.75 148.844 25.8125C150.115 26.8542 151.073 28.0938 151.719 29.5312C152.365 30.9479 152.688 32.5208 152.688 34.25C152.688 36.375 152.281 38.2708 151.469 39.9375C150.656 41.5833 149.51 42.9792 148.031 44.125C146.573 45.2708 144.865 46.1458 142.906 46.75C140.948 47.3333 138.812 47.625 136.5 47.625C134.583 47.625 132.698 47.3646 130.844 46.8438C129.01 46.3021 127.344 45.5 125.844 44.4375C124.365 43.3542 123.177 42 122.281 40.375C121.406 38.7292 120.969 36.7812 120.969 34.5312H130C130 35.6979 130.292 36.7396 130.875 37.6562C131.458 38.5729 132.26 39.2917 133.281 39.8125C134.323 40.3333 135.479 40.5938 136.75 40.5938C138.188 40.5938 139.417 40.3333 140.438 39.8125C141.479 39.2708 142.271 38.5208 142.812 37.5625C143.375 36.5833 143.656 35.4479 143.656 34.1562C143.656 32.4896 143.354 31.1562 142.75 30.1562C142.146 29.1354 141.281 28.3854 140.156 27.9062C139.031 27.4271 137.698 27.1875 136.156 27.1875H131.344Z" fill="url(#paint0_linear_106_103)"/>
<defs>
<linearGradient id="paint0_linear_106_103" x1="133.781" y1="0.499998" x2="26.8201" y2="65.4782" gradientUnits="userSpaceOnUse">
<stop stop-color="#D5525A"/>
<stop offset="1" stop-color="#451D78"/>
</linearGradient>
</defs>
</svg>
