<svg width="122" height="46" viewBox="0 0 122 46" fill="none" xmlns="http://www.w3.org/2000/svg">
<path d="M17.9375 29.7812H6.34375V22.4688H17.9375C19.7292 22.4688 21.1875 22.1771 22.3125 21.5938C23.4375 20.9896 24.2604 20.1562 24.7812 19.0938C25.3021 18.0312 25.5625 16.8333 25.5625 15.5C25.5625 14.1458 25.3021 12.8854 24.7812 11.7188C24.2604 10.5521 23.4375 9.61458 22.3125 8.90625C21.1875 8.19792 19.7292 7.84375 17.9375 7.84375H9.59375V46H0.21875V0.5H17.9375C21.5 0.5 24.5521 1.14583 27.0938 2.4375C29.6562 3.70833 31.6146 5.46875 32.9688 7.71875C34.3229 9.96875 35 12.5417 35 15.4375C35 18.375 34.3229 20.9167 32.9688 23.0625C31.6146 25.2083 29.6562 26.8646 27.0938 28.0312C24.5521 29.1979 21.5 29.7812 17.9375 29.7812ZM71.8125 19.0312V26.3438H48.0625V19.0312H71.8125ZM50.8438 0.5V46H41.4688V0.5H50.8438ZM78.5 0.5V46H69.1562V0.5H78.5ZM104.375 29.7812H92.7812V22.4688H104.375C106.167 22.4688 107.625 22.1771 108.75 21.5938C109.875 20.9896 110.698 20.1562 111.219 19.0938C111.74 18.0312 112 16.8333 112 15.5C112 14.1458 111.74 12.8854 111.219 11.7188C110.698 10.5521 109.875 9.61458 108.75 8.90625C107.625 8.19792 106.167 7.84375 104.375 7.84375H96.0312V46H86.6562V0.5H104.375C107.938 0.5 110.99 1.14583 113.531 2.4375C116.094 3.70833 118.052 5.46875 119.406 7.71875C120.76 9.96875 121.438 12.5417 121.438 15.4375C121.438 18.375 120.76 20.9167 119.406 23.0625C118.052 25.2083 116.094 26.8646 113.531 28.0312C110.99 29.1979 107.938 29.7812 104.375 29.7812Z" fill="url(#paint0_linear_105_98)"/>
<defs>
<linearGradient id="paint0_linear_105_98" x1="106" y1="-0.500002" x2="10.5" y2="46.5" gradientUnits="userSpaceOnUse">
<stop stop-color="#D5525A"/>
<stop offset="1" stop-color="#451D78"/>
</linearGradient>
</defs>
</svg>
