<svg width="235" height="48" viewBox="0 0 235 48" fill="none" xmlns="http://www.w3.org/2000/svg">
<path d="M0.53125 1.5H17.5C20.9792 1.5 23.9688 2.02083 26.4688 3.0625C28.9896 4.10417 30.9271 5.64583 32.2812 7.6875C33.6354 9.72917 34.3125 12.2396 34.3125 15.2188C34.3125 17.6562 33.8958 19.75 33.0625 21.5C32.25 23.2292 31.0938 24.6771 29.5938 25.8438C28.1146 26.9896 26.375 27.9062 24.375 28.5938L21.4062 30.1562H6.65625L6.59375 22.8438H17.5625C19.2083 22.8438 20.5729 22.5521 21.6562 21.9688C22.7396 21.3854 23.5521 20.5729 24.0938 19.5312C24.6562 18.4896 24.9375 17.2812 24.9375 15.9062C24.9375 14.4479 24.6667 13.1875 24.125 12.125C23.5833 11.0625 22.7604 10.25 21.6562 9.6875C20.5521 9.125 19.1667 8.84375 17.5 8.84375H9.90625V47H0.53125V1.5ZM25.9688 47L15.5938 26.7188L25.5 26.6562L36 46.5625V47H25.9688ZM56.5312 47.625C53.9062 47.625 51.5521 47.2083 49.4688 46.375C47.3854 45.5208 45.6146 44.3438 44.1562 42.8438C42.7188 41.3438 41.6146 39.6042 40.8438 37.625C40.0729 35.625 39.6875 33.5 39.6875 31.25V30C39.6875 27.4375 40.0521 25.0938 40.7812 22.9688C41.5104 20.8438 42.5521 19 43.9062 17.4375C45.2812 15.875 46.9479 14.6771 48.9062 13.8438C50.8646 12.9896 53.0729 12.5625 55.5312 12.5625C57.9271 12.5625 60.0521 12.9583 61.9062 13.75C63.7604 14.5417 65.3125 15.6667 66.5625 17.125C67.8333 18.5833 68.7917 20.3333 69.4375 22.375C70.0833 24.3958 70.4062 26.6458 70.4062 29.125V32.875H43.5312V26.875H61.5625V26.1875C61.5625 24.9375 61.3333 23.8229 60.875 22.8438C60.4375 21.8438 59.7708 21.0521 58.875 20.4688C57.9792 19.8854 56.8333 19.5938 55.4375 19.5938C54.25 19.5938 53.2292 19.8542 52.375 20.375C51.5208 20.8958 50.8229 21.625 50.2812 22.5625C49.7604 23.5 49.3646 24.6042 49.0938 25.875C48.8438 27.125 48.7188 28.5 48.7188 30V31.25C48.7188 32.6042 48.9062 33.8542 49.2812 35C49.6771 36.1458 50.2292 37.1354 50.9375 37.9688C51.6667 38.8021 52.5417 39.4479 53.5625 39.9062C54.6042 40.3646 55.7812 40.5938 57.0938 40.5938C58.7188 40.5938 60.2292 40.2812 61.625 39.6562C63.0417 39.0104 64.2604 38.0417 65.2812 36.75L69.6562 41.5C68.9479 42.5208 67.9792 43.5 66.75 44.4375C65.5417 45.375 64.0833 46.1458 62.375 46.75C60.6667 47.3333 58.7188 47.625 56.5312 47.625ZM93.7812 39.375V24.3125C93.7812 23.2292 93.6042 22.3021 93.25 21.5312C92.8958 20.7396 92.3438 20.125 91.5938 19.6875C90.8646 19.25 89.9167 19.0312 88.75 19.0312C87.75 19.0312 86.8854 19.2083 86.1562 19.5625C85.4271 19.8958 84.8646 20.3854 84.4688 21.0312C84.0729 21.6562 83.875 22.3958 83.875 23.25H74.875C74.875 21.8125 75.2083 20.4479 75.875 19.1562C76.5417 17.8646 77.5104 16.7292 78.7812 15.75C80.0521 14.75 81.5625 13.9688 83.3125 13.4062C85.0833 12.8438 87.0625 12.5625 89.25 12.5625C91.875 12.5625 94.2083 13 96.25 13.875C98.2917 14.75 99.8958 16.0625 101.062 17.8125C102.25 19.5625 102.844 21.75 102.844 24.375V38.8438C102.844 40.6979 102.958 42.2188 103.188 43.4062C103.417 44.5729 103.75 45.5938 104.188 46.4688V47H95.0938C94.6562 46.0833 94.3229 44.9375 94.0938 43.5625C93.8854 42.1667 93.7812 40.7708 93.7812 39.375ZM94.9688 26.4062L95.0312 31.5H90C88.8125 31.5 87.7812 31.6354 86.9062 31.9062C86.0312 32.1771 85.3125 32.5625 84.75 33.0625C84.1875 33.5417 83.7708 34.1042 83.5 34.75C83.25 35.3958 83.125 36.1042 83.125 36.875C83.125 37.6458 83.3021 38.3438 83.6562 38.9688C84.0104 39.5729 84.5208 40.0521 85.1875 40.4062C85.8542 40.7396 86.6354 40.9062 87.5312 40.9062C88.8854 40.9062 90.0625 40.6354 91.0625 40.0938C92.0625 39.5521 92.8333 38.8854 93.375 38.0938C93.9375 37.3021 94.2292 36.5521 94.25 35.8438L96.625 39.6562C96.2917 40.5104 95.8333 41.3958 95.25 42.3125C94.6875 43.2292 93.9688 44.0938 93.0938 44.9062C92.2188 45.6979 91.1667 46.3542 89.9375 46.875C88.7083 47.375 87.25 47.625 85.5625 47.625C83.4167 47.625 81.4688 47.1979 79.7188 46.3438C77.9896 45.4688 76.6146 44.2708 75.5938 42.75C74.5938 41.2083 74.0938 39.4583 74.0938 37.5C74.0938 35.7292 74.4271 34.1562 75.0938 32.7812C75.7604 31.4062 76.7396 30.25 78.0312 29.3125C79.3438 28.3542 80.9792 27.6354 82.9375 27.1562C84.8958 26.6562 87.1667 26.4062 89.75 26.4062H94.9688ZM123.75 40.5938C124.854 40.5938 125.833 40.3854 126.688 39.9688C127.542 39.5312 128.208 38.9271 128.688 38.1562C129.188 37.3646 129.448 36.4375 129.469 35.375H137.938C137.917 37.75 137.281 39.8646 136.031 41.7188C134.781 43.5521 133.104 45 131 46.0625C128.896 47.1042 126.542 47.625 123.938 47.625C121.312 47.625 119.021 47.1875 117.062 46.3125C115.125 45.4375 113.51 44.2292 112.219 42.6875C110.927 41.125 109.958 39.3125 109.312 37.25C108.667 35.1667 108.344 32.9375 108.344 30.5625V29.6562C108.344 27.2604 108.667 25.0312 109.312 22.9688C109.958 20.8854 110.927 19.0729 112.219 17.5312C113.51 15.9688 115.125 14.75 117.062 13.875C119 13 121.271 12.5625 123.875 12.5625C126.646 12.5625 129.073 13.0938 131.156 14.1562C133.26 15.2188 134.906 16.7396 136.094 18.7188C137.302 20.6771 137.917 23 137.938 25.6875H129.469C129.448 24.5625 129.208 23.5417 128.75 22.625C128.312 21.7083 127.667 20.9792 126.812 20.4375C125.979 19.875 124.948 19.5938 123.719 19.5938C122.406 19.5938 121.333 19.875 120.5 20.4375C119.667 20.9792 119.021 21.7292 118.562 22.6875C118.104 23.625 117.781 24.6979 117.594 25.9062C117.427 27.0938 117.344 28.3438 117.344 29.6562V30.5625C117.344 31.875 117.427 33.1354 117.594 34.3438C117.76 35.5521 118.073 36.625 118.531 37.5625C119.01 38.5 119.667 39.2396 120.5 39.7812C121.333 40.3229 122.417 40.5938 123.75 40.5938ZM159.719 13.1875V19.5625H140.031V13.1875H159.719ZM144.906 4.84375H153.906V36.8125C153.906 37.7917 154.031 38.5417 154.281 39.0625C154.552 39.5833 154.948 39.9479 155.469 40.1562C155.99 40.3438 156.646 40.4375 157.438 40.4375C158 40.4375 158.5 40.4167 158.938 40.375C159.396 40.3125 159.781 40.25 160.094 40.1875L160.125 46.8125C159.354 47.0625 158.521 47.2604 157.625 47.4062C156.729 47.5521 155.74 47.625 154.656 47.625C152.677 47.625 150.948 47.3021 149.469 46.6562C148.01 45.9896 146.885 44.9271 146.094 43.4688C145.302 42.0104 144.906 40.0938 144.906 37.7188V4.84375ZM183.812 33.0312V1.5H193.156V33.0312C193.156 36.0729 192.49 38.6875 191.156 40.875C189.823 43.0417 188 44.7083 185.688 45.875C183.396 47.0417 180.812 47.625 177.938 47.625C174.958 47.625 172.323 47.125 170.031 46.125C167.74 45.125 165.938 43.5938 164.625 41.5312C163.312 39.4479 162.656 36.8125 162.656 33.625H172.062C172.062 35.2917 172.292 36.6146 172.75 37.5938C173.229 38.5729 173.906 39.2708 174.781 39.6875C175.656 40.1042 176.708 40.3125 177.938 40.3125C179.125 40.3125 180.156 40.0312 181.031 39.4688C181.906 38.9062 182.583 38.0833 183.062 37C183.562 35.9167 183.812 34.5938 183.812 33.0312ZM224.844 35.0938C224.844 34.2812 224.719 33.5521 224.469 32.9062C224.24 32.2396 223.802 31.6354 223.156 31.0938C222.51 30.5312 221.604 29.9792 220.438 29.4375C219.271 28.8958 217.76 28.3333 215.906 27.75C213.844 27.0833 211.885 26.3333 210.031 25.5C208.198 24.6667 206.573 23.6979 205.156 22.5938C203.76 21.4688 202.656 20.1667 201.844 18.6875C201.052 17.2083 200.656 15.4896 200.656 13.5312C200.656 11.6354 201.073 9.91667 201.906 8.375C202.74 6.8125 203.906 5.47917 205.406 4.375C206.906 3.25 208.677 2.38542 210.719 1.78125C212.781 1.17708 215.042 0.875 217.5 0.875C220.854 0.875 223.781 1.47917 226.281 2.6875C228.781 3.89583 230.719 5.55208 232.094 7.65625C233.49 9.76042 234.188 12.1667 234.188 14.875H224.875C224.875 13.5417 224.594 12.375 224.031 11.375C223.49 10.3542 222.656 9.55208 221.531 8.96875C220.427 8.38542 219.031 8.09375 217.344 8.09375C215.719 8.09375 214.365 8.34375 213.281 8.84375C212.198 9.32292 211.385 9.97917 210.844 10.8125C210.302 11.625 210.031 12.5417 210.031 13.5625C210.031 14.3333 210.219 15.0312 210.594 15.6562C210.99 16.2812 211.573 16.8646 212.344 17.4062C213.115 17.9479 214.062 18.4583 215.188 18.9375C216.312 19.4167 217.615 19.8854 219.094 20.3438C221.573 21.0938 223.75 21.9375 225.625 22.875C227.521 23.8125 229.104 24.8646 230.375 26.0312C231.646 27.1979 232.604 28.5208 233.25 30C233.896 31.4792 234.219 33.1562 234.219 35.0312C234.219 37.0104 233.833 38.7812 233.062 40.3438C232.292 41.9062 231.177 43.2292 229.719 44.3125C228.26 45.3958 226.521 46.2188 224.5 46.7812C222.479 47.3438 220.219 47.625 217.719 47.625C215.469 47.625 213.25 47.3333 211.062 46.75C208.875 46.1458 206.885 45.2396 205.094 44.0312C203.323 42.8229 201.906 41.2812 200.844 39.4062C199.781 37.5312 199.25 35.3125 199.25 32.75H208.656C208.656 34.1667 208.875 35.3646 209.312 36.3438C209.75 37.3229 210.365 38.1146 211.156 38.7188C211.969 39.3229 212.927 39.7604 214.031 40.0312C215.156 40.3021 216.385 40.4375 217.719 40.4375C219.344 40.4375 220.677 40.2083 221.719 39.75C222.781 39.2917 223.562 38.6562 224.062 37.8438C224.583 37.0312 224.844 36.1146 224.844 35.0938Z" fill="url(#paint0_linear_106_105)"/>
<defs>
<linearGradient id="paint0_linear_106_105" x1="203.109" y1="0.499998" x2="82.9346" y2="111.856" gradientUnits="userSpaceOnUse">
<stop stop-color="#D5525A"/>
<stop offset="1" stop-color="#451D78"/>
</linearGradient>
</defs>
</svg>
